<?xml version="1.0" encoding="utf-8"?>
<!-- Generator: Adobe Illustrator 16.0.0, SVG Export Plug-In . SVG Version: 6.00 Build 0)  -->
<!DOCTYPE svg PUBLIC "-//W3C//DTD SVG 1.1//EN" "http://www.w3.org/Graphics/SVG/1.1/DTD/svg11.dtd">
<svg version="1.1" id="Layer_1" xmlns="http://www.w3.org/2000/svg" xmlns:xlink="http://www.w3.org/1999/xlink" x="0px" y="0px"
	 width="16px" height="16px" viewBox="0 0 16 16" enable-background="new 0 0 16 16" xml:space="preserve">
<g>
	<path d="M6.115,9.905c0.058-0.089,0.087-0.202,0.087-0.336c0-0.189-0.064-0.334-0.188-0.438C5.886,9.027,5.706,8.976,5.476,8.976
		h-0.73v1.966h0.404v-0.721h0.323l0.368,0.721h0.435v-0.02l-0.425-0.803C5.969,10.066,6.057,9.996,6.115,9.905z M5.713,9.816
		C5.656,9.867,5.578,9.894,5.477,9.894H5.149V9.303h0.326c0.108,0,0.189,0.027,0.243,0.08C5.77,9.437,5.798,9.509,5.798,9.602
		C5.798,9.693,5.769,9.765,5.713,9.816z"/>
	<polygon points="6.915,10.086 7.693,10.086 7.693,9.772 6.915,9.772 6.915,9.303 7.825,9.303 7.825,8.976 6.511,8.976 
		6.511,10.941 7.828,10.941 7.828,10.616 6.915,10.616 	"/>
	<polygon points="9.26,10.271 8.471,8.976 8.066,8.976 8.066,10.941 8.471,10.941 8.471,9.648 9.26,10.941 9.665,10.941 
		9.665,8.976 9.26,8.976 	"/>
	<polygon points="9.857,9.303 10.452,9.303 10.452,10.941 10.856,10.941 10.856,9.303 11.459,9.303 11.459,8.976 9.857,8.976 	"/>
	<path d="M2.398,1.98v3.008l2.211-2.254L4.584,2.012l0.425-0.016L5.007,0.979H1.973L1.977,1.98H2.398z M3.238,2.027l0.578-0.016
		v0.438L3.238,2.934V2.027z"/>
	<path d="M15.392,7.27l-6.918-7.08L8.472,0.188c0-0.001,0-0.002,0-0.002C8.437,0.15,8.394,0.135,8.354,0.108
		C8.312,0.078,8.271,0.039,8.224,0.02C8.177,0,8.128,0,8.079-0.01C8.032-0.018,7.988-0.035,7.941-0.035
		c-0.046,0-0.091,0.018-0.136,0.026C7.757,0,7.706,0.001,7.659,0.021C7.613,0.04,7.575,0.077,7.532,0.106
		C7.493,0.134,7.448,0.15,7.413,0.188c0,0,0,0.001-0.001,0.002c-0.001,0-0.001,0-0.002,0L0.493,7.298
		C0.348,7.447,0.275,7.643,0.275,7.837c0,0.196,0.074,0.394,0.222,0.542c0.13,0.131,0.296,0.195,0.465,0.209v7.38h1v-0.003h0.011
		v-1.457v-0.036l0.04-0.01c-0.017-0.034-0.026-0.071-0.04-0.106v-0.812c0.008-0.015,0.009-0.03,0.018-0.045l-0.017,0.004v-2.678
		c-0.001-0.003-0.001-0.005-0.001-0.008V9.074H1.967l0.011-1.595l0.007,0.002c0.001-0.112,0.039-0.229,0.14-0.332
		c0.018-0.019,0.031-0.036,0.048-0.055C2.249,6.981,2.337,6.876,2.416,6.75c0.008-0.013,0.02-0.018,0.028-0.03
		C2.457,6.708,2.462,6.69,2.476,6.678c0.006-0.006,0.013-0.009,0.019-0.013c0.012-0.018,0.021-0.034,0.035-0.05L2.523,6.612
		L7.988,1.09l5.316,5.515c0.038,0.03,0.073,0.061,0.1,0.101c0.047,0.029,0.092,0.065,0.129,0.119c0.12,0.169,0.26,0.313,0.37,0.491
		c0.02,0.031,0.022,0.061,0.035,0.092l0.023-0.014v0.078c0.021,0.084,0.024,0.165,0,0.238v8.258h1V8.553
		c0.155-0.021,0.308-0.08,0.428-0.203C15.684,8.053,15.684,7.568,15.392,7.27z"/>
	<path d="M2.973,12.98l10-0.016l0.016-6L2.973,6.98V12.98z M3.973,7.949l8.016,0.016l0.016,4.016l-8.031-0.016V7.949z"/>
</g>
</svg>
